<?xml version="1.0"?><svg fill="#000000" xmlns="http://www.w3.org/2000/svg"  viewBox="0 0 30 30" width="480px" height="480px">    <path d="M 14.890625 2.0449219 C 12.976625 2.1989219 10.199219 2.8219375 8.0742188 4.9609375 C 7.5312187 5.5069375 7.3053594 6.2986406 7.4433594 7.0566406 C 7.7753594 8.8796406 8.3695156 10.465469 8.9785156 11.730469 C 9.2015156 12.193469 8.5841406 12.599844 8.2441406 12.214844 C 7.6101406 11.497844 6.9313438 10.67325 6.2773438 9.78125 C 6.0403438 9.45925 5.5295 9.5592187 5.4375 9.9492188 C 5.3215 10.442219 5.22725 10.964531 5.15625 11.519531 C 5.07625 12.144531 5.2289062 12.790344 5.6289062 13.277344 C 7.8559063 15.982344 11.094219 18.225766 13.699219 19.759766 C 14.169219 20.036766 13.820547 20.749641 13.310547 20.556641 C 10.995547 19.680641 8.2032344 18.376359 5.8652344 16.568359 C 5.5372344 16.314359 5.0657031 16.560609 5.0957031 16.974609 C 5.1377031 17.558609 5.1919531 18.104906 5.2519531 18.628906 C 5.3239531 19.263906 5.6391562 19.855609 6.1601562 20.224609 C 8.7761562 22.075609 12.158828 23.260328 14.923828 23.986328 C 15.441828 24.122328 15.312344 24.892422 14.777344 24.857422 C 11.602344 24.648422 8.8383437 24.168578 6.5273438 23.142578 C 6.1943437 22.994578 5.8234687 23.239516 5.8554688 23.603516 C 5.8874688 23.977516 5.9174531 24.366391 5.9394531 24.775391 C 6.0094531 26.019391 7.0244844 27 8.2714844 27 L 22 27 C 22 20 15 16 15 16 C 15 16 18.000328 16 19.236328 14 L 23.5 14 A 1.5 1.5 0 0 0 24.59375 13.523438 C 24.881064 13.258114 25.485638 12.636016 25.806641 11.853516 A 2 2 0 0 0 25.931641 11.511719 C 25.932129 11.509832 25.931157 11.507747 25.931641 11.505859 A 2 2 0 0 0 26 11 A 2 2 0 0 0 25.263672 9.4511719 L 25.261719 9.4472656 C 23.650719 8.2082656 19.603 5 15 5 L 15.65625 3.0332031 C 15.82625 2.5232031 15.426625 2.0019219 14.890625 2.0449219 z M 10.740234 4.3964844 C 10.867406 4.3947969 10.997844 4.4269531 11.121094 4.5019531 C 11.840094 4.9399531 12.695 5.713 13 7 C 14.589 7 16.944109 6.580625 19.912109 7.890625 C 20.955109 8.350625 21.300688 9.6201719 20.679688 10.576172 C 20.419688 10.975172 20.179437 11.439266 20.023438 11.947266 C 17.999437 9.9992656 11 14 11 9 C 10.347 8.347 10.120969 6.4123906 10.042969 5.1503906 C 10.015969 4.7183906 10.358719 4.4015469 10.740234 4.3964844 z M 15 8 A 1 1 0 0 0 14 9 A 1 1 0 0 0 15 10 A 1 1 0 0 0 16 9 A 1 1 0 0 0 15 8 z"/></svg>