<?xml version="1.0" encoding="UTF-8"?>
<svg xmlns="http://www.w3.org/2000/svg" xmlns:xlink="http://www.w3.org/1999/xlink" viewBox="0 0 48 48" width="48px" height="48px">
<defs>
<linearGradient id="linear0" gradientUnits="userSpaceOnUse" x1="114.835083" y1="121.037827" x2="41.717171" y2="47.916328" gradientTransform="matrix(0.27907,0,0,0.27907,0,0)">
<stop offset="0" style="stop-color:rgb(76.078433%,78.431374%,80.000001%);stop-opacity:1;"/>
<stop offset="1" style="stop-color:rgb(97.647059%,97.647059%,97.647059%);stop-opacity:1;"/>
</linearGradient>
<linearGradient id="linear1" gradientUnits="userSpaceOnUse" x1="109.972504" y1="103.346916" x2="34.57917" y2="27.95717" gradientTransform="matrix(0.27907,0,0,0.27907,0,0)">
<stop offset="0.002" style="stop-color:rgb(27.058825%,27.058825%,27.058825%);stop-opacity:1;"/>
<stop offset="0.013" style="stop-color:rgb(27.450982%,27.450982%,27.450982%);stop-opacity:1;"/>
<stop offset="0.875" style="stop-color:rgb(38.431373%,38.431373%,38.431373%);stop-opacity:1;"/>
<stop offset="1" style="stop-color:rgb(42.745098%,42.745098%,42.745098%);stop-opacity:1;"/>
</linearGradient>
<linearGradient id="linear2" gradientUnits="userSpaceOnUse" x1="136.686249" y1="76.633171" x2="61.292919" y2="1.23983" gradientTransform="matrix(0.27907,0,0,0.27907,0,0)">
<stop offset="0.002" style="stop-color:rgb(27.058825%,27.058825%,27.058825%);stop-opacity:1;"/>
<stop offset="0.013" style="stop-color:rgb(27.450982%,27.450982%,27.450982%);stop-opacity:1;"/>
<stop offset="0.875" style="stop-color:rgb(38.431373%,38.431373%,38.431373%);stop-opacity:1;"/>
<stop offset="1" style="stop-color:rgb(42.745098%,42.745098%,42.745098%);stop-opacity:1;"/>
</linearGradient>
<linearGradient id="linear3" gradientUnits="userSpaceOnUse" x1="103.923828" y1="68.083328" x2="114.673828" y2="68.083328" gradientTransform="matrix(0.27907,0,0,0.27907,0,0)">
<stop offset="0" style="stop-color:rgb(29.803923%,29.803923%,29.803923%);stop-opacity:1;"/>
<stop offset="1" style="stop-color:rgb(20.392157%,20.392157%,20.392157%);stop-opacity:1;"/>
</linearGradient>
<linearGradient id="linear4" gradientUnits="userSpaceOnUse" x1="122.911919" y1="127.22625" x2="166.270248" y2="83.86792" gradientTransform="matrix(0.27907,0,0,0.27907,0,0)">
<stop offset="0.002" style="stop-color:rgb(27.058825%,27.058825%,27.058825%);stop-opacity:1;"/>
<stop offset="0.013" style="stop-color:rgb(27.450982%,27.450982%,27.450982%);stop-opacity:1;"/>
<stop offset="0.875" style="stop-color:rgb(38.431373%,38.431373%,38.431373%);stop-opacity:1;"/>
<stop offset="1" style="stop-color:rgb(42.745098%,42.745098%,42.745098%);stop-opacity:1;"/>
</linearGradient>
<linearGradient id="linear5" gradientUnits="userSpaceOnUse" x1="108.231003" y1="112.545326" x2="151.589325" y2="69.190582" gradientTransform="matrix(0.27907,0,0,0.27907,0,0)">
<stop offset="0.002" style="stop-color:rgb(27.058825%,27.058825%,27.058825%);stop-opacity:1;"/>
<stop offset="0.013" style="stop-color:rgb(27.450982%,27.450982%,27.450982%);stop-opacity:1;"/>
<stop offset="0.875" style="stop-color:rgb(38.431373%,38.431373%,38.431373%);stop-opacity:1;"/>
<stop offset="1" style="stop-color:rgb(42.745098%,42.745098%,42.745098%);stop-opacity:1;"/>
</linearGradient>
<linearGradient id="linear6" gradientUnits="userSpaceOnUse" x1="95.223503" y1="99.537827" x2="138.581833" y2="56.179501" gradientTransform="matrix(0.27907,0,0,0.27907,0,0)">
<stop offset="0.002" style="stop-color:rgb(27.058825%,27.058825%,27.058825%);stop-opacity:1;"/>
<stop offset="0.013" style="stop-color:rgb(27.450982%,27.450982%,27.450982%);stop-opacity:1;"/>
<stop offset="0.875" style="stop-color:rgb(38.431373%,38.431373%,38.431373%);stop-opacity:1;"/>
<stop offset="1" style="stop-color:rgb(42.745098%,42.745098%,42.745098%);stop-opacity:1;"/>
</linearGradient>
<linearGradient id="linear7" gradientUnits="userSpaceOnUse" x1="85.251083" y1="89.565422" x2="128.609421" y2="46.207081" gradientTransform="matrix(0.27907,0,0,0.27907,0,0)">
<stop offset="0.002" style="stop-color:rgb(27.058825%,27.058825%,27.058825%);stop-opacity:1;"/>
<stop offset="0.013" style="stop-color:rgb(27.450982%,27.450982%,27.450982%);stop-opacity:1;"/>
<stop offset="0.875" style="stop-color:rgb(38.431373%,38.431373%,38.431373%);stop-opacity:1;"/>
<stop offset="1" style="stop-color:rgb(42.745098%,42.745098%,42.745098%);stop-opacity:1;"/>
</linearGradient>
<linearGradient id="linear8" gradientUnits="userSpaceOnUse" x1="76.57225" y1="80.886581" x2="119.927002" y2="37.528252" gradientTransform="matrix(0.27907,0,0,0.27907,0,0)">
<stop offset="0.002" style="stop-color:rgb(27.058825%,27.058825%,27.058825%);stop-opacity:1;"/>
<stop offset="0.013" style="stop-color:rgb(27.450982%,27.450982%,27.450982%);stop-opacity:1;"/>
<stop offset="0.875" style="stop-color:rgb(38.431373%,38.431373%,38.431373%);stop-opacity:1;"/>
<stop offset="1" style="stop-color:rgb(42.745098%,42.745098%,42.745098%);stop-opacity:1;"/>
</linearGradient>
<linearGradient id="linear9" gradientUnits="userSpaceOnUse" x1="85.272583" y1="128.046829" x2="9.87925" y2="52.6535" gradientTransform="matrix(0.27907,0,0,0.27907,0,0)">
<stop offset="0.002" style="stop-color:rgb(27.058825%,27.058825%,27.058825%);stop-opacity:1;"/>
<stop offset="0.013" style="stop-color:rgb(27.450982%,27.450982%,27.450982%);stop-opacity:1;"/>
<stop offset="0.875" style="stop-color:rgb(38.431373%,38.431373%,38.431373%);stop-opacity:1;"/>
<stop offset="1" style="stop-color:rgb(42.745098%,42.745098%,42.745098%);stop-opacity:1;"/>
</linearGradient>
</defs>
<g id="surface128745099">
<path style=" stroke:none;fill-rule:nonzero;fill:url(#linear0);" d="M 28.992188 7.628906 C 27.59375 7.171875 26.261719 6.96875 25.003906 7.039062 C 24.671875 7.058594 24.34375 7.101562 24.011719 7.148438 C 22.570312 7.398438 21.203125 8.011719 19.851562 9.039062 C 18.910156 9.738281 17.980469 10.640625 17.050781 11.75 C 16.621094 12.261719 16.082031 12.890625 15.480469 13.601562 C 15.300781 13.808594 15.101562 14.039062 14.910156 14.269531 C 14.191406 15.101562 13.390625 16.019531 12.570312 16.980469 C 10.910156 18.910156 9.101562 20.988281 7.511719 22.820312 C 6.210938 24.320312 5.050781 25.648438 4.230469 26.589844 C 3.542969 27.378906 3.59375 28.578125 4.34375 29.320312 L 6.050781 31 L 21.003906 44.5 C 22.101562 45.421875 23.78125 44.910156 24.203125 43.539062 L 24.902344 40.878906 L 25.910156 37 L 26.972656 32.941406 L 28.003906 29 L 27.921875 28.828125 L 27.8125 28.589844 C 27.800781 28.589844 27.800781 28.589844 27.800781 28.578125 L 25.332031 23.238281 L 22.640625 17.421875 L 24.363281 16.011719 L 27.53125 13.421875 L 28.050781 13 L 29.632812 8.960938 C 29.84375 8.421875 29.542969 7.808594 28.992188 7.628906 Z M 28.992188 7.628906 "/>
<path style=" stroke:none;fill-rule:nonzero;fill:url(#linear1);" d="M 28.003906 29 L 26.972656 32.941406 C 25.710938 32.941406 21.121094 29.488281 17.523438 21.609375 C 17.160156 20.839844 16.820312 20.03125 16.492188 19.171875 C 15.910156 17.671875 15.382812 16.039062 14.910156 14.269531 C 15.101562 14.039062 15.300781 13.808594 15.480469 13.601562 C 16.082031 12.890625 16.621094 12.261719 17.050781 11.75 C 17.980469 10.640625 18.910156 9.738281 19.851562 9.039062 C 19.902344 10.699219 20.132812 12.621094 20.503906 14.621094 C 20.742188 15.878906 21.042969 17.179688 21.390625 18.441406 C 22.78125 23.378906 25.042969 27.898438 27.921875 28.828125 Z M 28.003906 29 "/>
<path style=" stroke:none;fill-rule:nonzero;fill:url(#linear2);" d="M 29.632812 8.960938 L 28.050781 13 L 27.53125 13.421875 L 25.003906 13 L 25.003906 7.039062 C 26.261719 6.96875 27.59375 7.171875 28.992188 7.628906 C 29.542969 7.808594 29.84375 8.421875 29.632812 8.960938 Z M 29.632812 8.960938 "/>
<path style=" stroke:none;fill-rule:nonzero;fill:rgb(80.392158%,82.352942%,83.92157%);fill-opacity:1;" d="M 26.003906 6 C 23.003906 7 21.003906 10 21.003906 14 L 26.003906 14 Z M 26.003906 6 "/>
<path style=" stroke:none;fill-rule:nonzero;fill:rgb(80.392158%,82.352942%,83.92157%);fill-opacity:1;" d="M 44.460938 28.648438 C 43.753906 29.820312 42.503906 30.511719 41.191406 30.511719 C 40.921875 30.511719 40.652344 30.480469 40.382812 30.421875 L 38.003906 29.910156 L 35.28125 29.320312 L 33.800781 29 C 33.800781 29 32.613281 29.679688 30.523438 29.921875 L 30.511719 29.921875 C 30.0625 29.96875 29.582031 30 29.050781 30 C 28.691406 30 28.363281 29.988281 28.0625 29.960938 C 25.8125 29.78125 25.003906 29 25.003906 29 C 24.351562 28.511719 23.800781 28.019531 23.351562 27.5 C 22.523438 26.570312 21.980469 25.550781 21.632812 24.289062 C 21.242188 22.859375 21.09375 21.121094 21.042969 18.839844 C 21.003906 17.449219 21.003906 15.851562 21.003906 14 L 25.050781 10.75 L 32.710938 13.859375 C 32.8125 13.898438 32.910156 13.949219 33.003906 14.011719 C 33.113281 14.078125 33.222656 14.160156 33.320312 14.25 L 34.84375 15.648438 L 40.472656 20.839844 L 41.410156 21.710938 L 43.09375 23.25 L 43.78125 23.890625 C 45.101562 25.121094 45.382812 27.109375 44.460938 28.648438 Z M 44.460938 28.648438 "/>
<path style=" stroke:none;fill-rule:nonzero;fill:url(#linear3);" d="M 31.003906 20 C 29.546875 20 29.003906 18 29.003906 18 C 29.003906 18 30.449219 18 31.003906 18 C 31.554688 18 32.003906 18.449219 32.003906 19 C 32.003906 19.550781 31.554688 20 31.003906 20 Z M 31.003906 20 "/>
<path style=" stroke:none;fill-rule:nonzero;fill:url(#linear4);" d="M 44.460938 28.648438 C 43.753906 29.820312 42.503906 30.511719 41.191406 30.511719 C 40.921875 30.511719 40.652344 30.480469 40.382812 30.421875 L 38.003906 29.910156 C 38.042969 28.148438 39.222656 26.671875 40.820312 26.179688 C 41.472656 25.980469 41.980469 25.46875 42.183594 24.820312 C 42.363281 24.230469 42.683594 23.691406 43.09375 23.25 L 43.78125 23.890625 C 45.101562 25.121094 45.382812 27.109375 44.460938 28.648438 Z M 44.460938 28.648438 "/>
<path style=" stroke:none;fill-rule:nonzero;fill:url(#linear5);" d="M 41.410156 21.710938 C 40.730469 22.929688 40.273438 24.371094 39.003906 25 C 36.671875 26.160156 35.691406 27.851562 35.28125 29.320312 L 33.800781 29 C 33.800781 29 32.613281 29.679688 30.523438 29.921875 C 31.222656 27.769531 32.78125 24.640625 36.003906 24 C 37.390625 23.71875 38.761719 21.929688 40.472656 20.839844 Z M 41.410156 21.710938 "/>
<path style=" stroke:none;fill-rule:nonzero;fill:url(#linear6);" d="M 32.003906 23 C 31.300781 23.460938 28.460938 25.648438 28.0625 29.960938 C 26.253906 29.960938 24.960938 29.015625 24.960938 29.015625 C 24.308594 28.527344 23.800781 28.019531 23.351562 27.5 C 24.292969 26.230469 27.183594 23 32.003906 23 Z M 32.003906 23 "/>
<path style=" stroke:none;fill-rule:nonzero;fill:url(#linear7);" d="M 34.84375 15.648438 C 34.421875 16.230469 33.820312 16.730469 33.003906 17 C 33.003906 17 33.351562 15.578125 33.003906 14.011719 C 33.113281 14.078125 33.222656 14.160156 33.320312 14.25 Z M 34.84375 15.648438 "/>
<path style=" stroke:none;fill-rule:nonzero;fill:url(#linear8);" d="M 27.003906 21 C 25.320312 21 22.941406 21.699219 21.632812 24.289062 C 21.199219 22.878906 21.042969 21.136719 21.042969 18.839844 C 22.773438 18.851562 25.230469 19.230469 27.003906 21 Z M 27.003906 21 "/>
<path style=" stroke:none;fill-rule:nonzero;fill:url(#linear9);" d="M 25.910156 37 L 24.902344 40.878906 C 20.972656 40.078125 14.371094 35.351562 9.941406 27.820312 C 9.792969 27.578125 9.652344 27.328125 9.511719 27.078125 C 8.761719 25.738281 8.09375 24.320312 7.511719 22.820312 C 9.101562 20.988281 10.910156 18.910156 12.570312 16.980469 C 12.933594 18.5 13.460938 20.160156 14.113281 21.859375 C 14.351562 22.488281 14.613281 23.121094 14.890625 23.761719 C 17.742188 30.371094 22.191406 36.890625 25.910156 37 Z M 25.910156 37 "/>
</g>
</svg>
