<?xml version="1.0" encoding="UTF-8"?>
<svg xmlns="http://www.w3.org/2000/svg" xmlns:xlink="http://www.w3.org/1999/xlink" viewBox="0 0 64 64" width="64px" height="64px">
<g id="surface128543529">
<path style=" stroke:none;fill-rule:nonzero;fill:rgb(80.000001%,78.039217%,74.509805%);fill-opacity:1;" d="M 20 42 L 23 54 L 23 64 L 19 64 L 19 55 L 16 42 Z M 20 42 "/>
<path style=" stroke:none;fill-rule:nonzero;fill:rgb(80.000001%,78.039217%,74.509805%);fill-opacity:1;" d="M 52 45 C 52.769531 47.109375 53.777344 49.121094 55 51 L 55 64 L 51 64 L 51 53 L 43 41 C 43 41 41 37 43 34 Z M 52 45 "/>
<path style=" stroke:none;fill-rule:nonzero;fill:rgb(46.666667%,34.901962%,29.411766%);fill-opacity:1;" d="M 5 21 L 3 14 C 3 14 27 13 28 29 Z M 5 21 "/>
<path style=" stroke:none;fill-rule:nonzero;fill:rgb(80.000001%,78.039217%,74.509805%);fill-opacity:1;" d="M 62 44 L 60 44 L 60 37 C 60 33.242188 57.394531 32.179688 56.855469 32 L 54 32 L 54 30 L 57 30 C 57.082031 30 57.164062 30.011719 57.242188 30.03125 C 58.886719 30.441406 62 32.425781 62 37 Z M 62 44 "/>
<path style=" stroke:none;fill-rule:nonzero;fill:rgb(96.470588%,94.117647%,89.803922%);fill-opacity:1;" d="M 10 27 L 8 28 C 8 29.65625 6.65625 31 5 31 L 4 31 C 2.34375 31 1 29.65625 1 28 L 1 26 L 2 23 L 7 18 C 8 16 11 16 11 16 C 11 16 15 17 22 25 C 28.984375 31.984375 37.957031 25.03125 47.929688 25 C 50.328125 24.992188 52.628906 25.933594 54.332031 27.625 C 56.03125 29.3125 56.992188 31.609375 57 34.003906 C 57 40 55 42 56 45 L 44 43 C 44 43 42 47 35 47 C 28.816406 46.929688 22.691406 45.828125 16.875 43.734375 C 15.703125 43.308594 14.796875 42.359375 14.425781 41.167969 Z M 10 27 "/>
<path style=" stroke:none;fill-rule:nonzero;fill:rgb(96.470588%,94.117647%,89.803922%);fill-opacity:1;" d="M 56 45 C 56.769531 47.109375 57.777344 49.121094 59 51 L 59 64 L 55 64 L 55 53 L 47 41 C 47 41 45 37 47 34 Z M 56 45 "/>
<path style=" stroke:none;fill-rule:nonzero;fill:rgb(96.470588%,94.117647%,89.803922%);fill-opacity:1;" d="M 23 42 L 26 54 L 26 64 L 22 64 L 22 55 L 19 42 Z M 23 42 "/>
<path style=" stroke:none;fill-rule:nonzero;fill:rgb(46.666667%,34.901962%,29.411766%);fill-opacity:1;" d="M 63 44 C 63 45.105469 61 48 61 48 C 61 48 59 45.105469 59 44 C 59 42.894531 59.894531 42 61 42 C 62.105469 42 63 42.894531 63 44 Z M 63 44 "/>
<path style=" stroke:none;fill-rule:nonzero;fill:rgb(96.470588%,94.117647%,89.803922%);fill-opacity:1;" d="M 9 19 C 8.417969 17.746094 8.117188 16.382812 8.113281 15 C 8.113281 13.933594 8.421875 12.894531 9 12 L 13 18 Z M 9 19 "/>
<path style=" stroke:none;fill-rule:nonzero;fill:rgb(46.666667%,34.901962%,29.411766%);fill-opacity:1;" d="M 53.382812 26.816406 C 52.675781 26.289062 51.898438 25.867188 51.074219 25.5625 C 47.851562 26.957031 43.867188 29.441406 42.082031 33.605469 C 41.976562 33.851562 41.972656 34.125 42.070312 34.371094 C 42.171875 34.617188 42.363281 34.816406 42.605469 34.917969 C 42.730469 34.972656 42.863281 35 43 35 C 43.398438 35 43.761719 34.761719 43.917969 34.394531 C 45.71875 30.199219 50.347656 27.910156 53.382812 26.816406 Z M 53.382812 26.816406 "/>
<path style=" stroke:none;fill-rule:nonzero;fill:rgb(46.666667%,34.901962%,29.411766%);fill-opacity:1;" d="M 15.949219 27.316406 C 16.523438 25.59375 15.992188 21.839844 15.332031 18.554688 C 14.570312 17.957031 13.769531 17.410156 12.9375 16.914062 C 13.808594 20.789062 14.542969 25.214844 14.050781 26.683594 C 13.9375 27.023438 14.011719 27.398438 14.25 27.664062 C 14.488281 27.933594 14.851562 28.054688 15.199219 27.980469 C 15.550781 27.910156 15.835938 27.65625 15.949219 27.316406 Z M 15.949219 27.316406 "/>
<path style=" stroke:none;fill-rule:nonzero;fill:rgb(46.666667%,34.901962%,29.411766%);fill-opacity:1;" d="M 17.597656 35.800781 C 20.421875 33.683594 21.429688 28.441406 21.792969 24.769531 C 21.148438 24.039062 20.53125 23.375 19.941406 22.757812 C 19.730469 26.359375 18.878906 32.34375 16.402344 34.199219 C 16.113281 34.414062 15.960938 34.765625 16.003906 35.121094 C 16.046875 35.476562 16.277344 35.78125 16.605469 35.921875 C 16.933594 36.0625 17.3125 36.015625 17.597656 35.800781 Z M 17.597656 35.800781 "/>
<path style=" stroke:none;fill-rule:nonzero;fill:rgb(46.666667%,34.901962%,29.411766%);fill-opacity:1;" d="M 35.839844 46.96875 C 35.773438 44.847656 35.476562 42.738281 34.949219 40.683594 C 34.773438 40.160156 34.207031 39.878906 33.683594 40.054688 C 33.160156 40.226562 32.878906 40.792969 33.050781 41.316406 C 33.515625 43.171875 33.78125 45.070312 33.835938 46.980469 C 34.222656 46.992188 34.609375 47 35 47 C 35.292969 47 35.5625 46.984375 35.839844 46.96875 Z M 35.839844 46.96875 "/>
<path style=" stroke:none;fill-rule:nonzero;fill:rgb(46.666667%,34.901962%,29.411766%);fill-opacity:1;" d="M 39.40625 26.296875 C 37.113281 30.386719 34.855469 35.722656 36.050781 39.316406 C 36.164062 39.65625 36.449219 39.910156 36.800781 39.980469 C 37.148438 40.054688 37.511719 39.933594 37.75 39.664062 C 37.988281 39.398438 38.0625 39.023438 37.949219 38.683594 C 36.878906 35.480469 39.566406 29.839844 42.078125 25.683594 C 41.175781 25.871094 40.285156 26.078125 39.40625 26.296875 Z M 39.40625 26.296875 "/>
<path style=" stroke:none;fill-rule:nonzero;fill:rgb(46.666667%,34.901962%,29.411766%);fill-opacity:1;" d="M 30.773438 28.066406 C 28.460938 32.441406 26.179688 38.246094 28.144531 41.515625 C 28.425781 41.988281 29.042969 42.140625 29.515625 41.855469 C 29.988281 41.574219 30.140625 40.957031 29.855469 40.484375 C 28.289062 37.867188 30.808594 32.085938 33.246094 27.742188 C 32.425781 27.894531 31.601562 28.003906 30.773438 28.066406 Z M 30.773438 28.066406 "/>
<path style=" stroke:none;fill-rule:nonzero;fill:rgb(46.666667%,34.901962%,29.411766%);fill-opacity:1;" d="M 7 21 L 9 21 L 9 23 L 7 23 Z M 7 21 "/>
</g>
</svg>
