<?xml version="1.0" encoding="UTF-8"?>
<svg xmlns="http://www.w3.org/2000/svg" xmlns:xlink="http://www.w3.org/1999/xlink" viewBox="0 0 30 30" width="30px" height="30px">
<g id="surface128725529">
<path style=" stroke:none;fill-rule:nonzero;fill:rgb(92.54902%,94.117647%,94.509804%);fill-opacity:1;" d="M 14.890625 2.046875 C 12.976562 2.199219 10.199219 2.820312 8.074219 4.960938 C 7.53125 5.507812 7.304688 6.296875 7.441406 7.054688 C 7.773438 8.878906 8.371094 10.464844 8.976562 11.730469 C 9.203125 12.195312 8.585938 12.601562 8.242188 12.214844 C 7.609375 11.496094 6.929688 10.671875 6.277344 9.78125 C 6.039062 9.460938 5.53125 9.558594 5.4375 9.949219 C 5.320312 10.441406 5.226562 10.964844 5.15625 11.519531 C 5.078125 12.144531 5.230469 12.789062 5.628906 13.277344 C 7.855469 15.980469 11.09375 18.226562 13.699219 19.757812 C 14.167969 20.035156 13.820312 20.75 13.308594 20.554688 C 10.996094 19.679688 8.203125 18.375 5.863281 16.566406 C 5.539062 16.3125 5.066406 16.5625 5.09375 16.972656 C 5.136719 17.558594 5.191406 18.105469 5.25 18.628906 C 5.324219 19.265625 5.640625 19.855469 6.160156 20.226562 C 8.777344 22.074219 12.160156 23.261719 14.921875 23.988281 C 15.441406 24.121094 15.3125 24.890625 14.777344 24.859375 C 11.601562 24.648438 8.839844 24.167969 6.527344 23.144531 C 6.195312 22.996094 5.824219 23.238281 5.855469 23.605469 C 5.886719 23.976562 5.917969 24.367188 5.9375 24.777344 C 6.007812 26.019531 7.023438 27 8.269531 27 L 22 27 C 22 20 15 16 15 16 C 15 16 18 16 19.234375 14 L 23.5 14 C 23.914062 14 24.3125 13.828125 24.59375 13.523438 C 24.882812 13.257812 25.484375 12.636719 25.804688 11.851562 C 25.859375 11.742188 25.902344 11.628906 25.933594 11.511719 C 25.933594 11.511719 25.929688 11.507812 25.933594 11.503906 C 25.976562 11.339844 26 11.171875 26 11 C 26 10.398438 25.730469 9.832031 25.261719 9.449219 L 25.261719 9.445312 C 23.652344 8.207031 19.601562 5 15 5 L 15.65625 3.03125 C 15.828125 2.523438 15.425781 2 14.890625 2.042969 Z M 10.738281 4.394531 C 10.867188 4.394531 10.996094 4.425781 11.121094 4.503906 C 11.839844 4.941406 12.695312 5.714844 13 7 C 14.589844 7 16.945312 6.582031 19.910156 7.890625 C 20.957031 8.351562 21.300781 9.621094 20.679688 10.578125 C 20.417969 10.976562 20.179688 11.4375 20.023438 11.949219 C 18 10 11 14 11 9 C 10.347656 8.347656 10.121094 6.414062 10.042969 5.152344 C 10.015625 4.71875 10.359375 4.402344 10.738281 4.398438 Z M 15 8 C 14.449219 8 14 8.449219 14 9 C 14 9.550781 14.449219 10 15 10 C 15.550781 10 16 9.550781 16 9 C 16 8.449219 15.550781 8 15 8 Z M 15 8 "/>
</g>
</svg>
